Coordinates
version=1
nRows=32
nColumns=12
inDegrees=yes

Units are S.I. units (second, meters, Newtons, ...)
Angles are in degrees

endheader
time	SC_y	SC_z	SC_x	AC_y	AC_z	AC_x	GH_y	GH_z	GH_yy	EL_x	PS_y
       0.0              -56.01         -3.348          6.761          41.62         -12.82         -7.011         -58.36         0.6762         -24.84           41.7          37.77
   0.01487              -56.01         -3.344          6.764          41.63         -12.82         -7.007         -58.35         0.6813         -24.84           41.7          37.77
   0.02974              -56.01          -3.34          6.768          41.63         -12.82         -7.004         -58.35         0.6866         -24.84          41.71          37.78
   0.04461              -56.01         -3.336          6.773          41.63         -12.81         -6.999         -58.35         0.6923         -24.84          41.72          37.78
   0.05948              -56.01         -3.331          6.777          41.63         -12.81         -6.995         -58.34         0.6984         -24.84          41.73          37.78
   0.07435              -56.01         -3.327          6.782          41.64         -12.81          -6.99         -58.34         0.7049         -24.84          41.74          37.79
   0.08922              -56.01         -3.322          6.787          41.64         -12.81         -6.985         -58.33         0.7118         -24.84          41.75          37.79
    0.1041              -56.01         -3.316          6.793          41.64          -12.8          -6.98         -58.33         0.7192         -24.84          41.76           37.8
     0.119              -56.01          -3.31          6.799          41.65          -12.8         -6.974         -58.32         0.7271         -24.84          41.77          37.81
    0.1338              -56.01         -3.304          6.805          41.65          -12.8         -6.968         -58.32         0.7356         -24.85          41.78          37.81
    0.1487              -56.01         -3.298          6.812          41.65         -12.79         -6.961         -58.31         0.7448         -24.85          41.79          37.82
    0.1636              -56.01          -3.29          6.819          41.66         -12.79         -6.954          -58.3         0.7546         -24.85          41.81          37.83
    0.1784              -56.01         -3.283          6.827          41.66         -12.78         -6.946          -58.3         0.7652         -24.85          41.82          37.84
    0.1933              -56.01         -3.274          6.835          41.67         -12.78         -6.938         -58.29         0.7766         -24.85          41.84          37.84
    0.2082              -56.01         -3.265          6.844          41.67         -12.78         -6.929         -58.28          0.789         -24.85          41.86          37.85
    0.2231              -56.01         -3.256          6.854          41.68         -12.77         -6.919         -58.27         0.8024         -24.86          41.88          37.86
    0.2379              -56.01         -3.245          6.865          41.68         -12.76         -6.909         -58.26          0.817         -24.86           41.9          37.88
    0.2528              -56.01         -3.233          6.877          41.69         -12.76         -6.897         -58.25         0.8329         -24.86          41.92          37.89
    0.2677              -56.01         -3.221           6.89           41.7         -12.75         -6.884         -58.24         0.8503         -24.86          41.95           37.9
    0.2825              -56.01         -3.207          6.904           41.7         -12.74         -6.871         -58.22         0.8693         -24.87          41.97          37.92
    0.2974              -56.01         -3.192          6.919          41.71         -12.74         -6.855         -58.21         0.8902         -24.87           42.0          37.93
    0.3123              -56.01         -3.175          6.936          41.72         -12.73         -6.839         -58.19         0.9131         -24.87          42.04          37.95
    0.3272               -56.0         -3.156          6.955          41.73         -12.72          -6.82         -58.18         0.9385         -24.88          42.07          37.97
     0.342               -56.0         -3.136          6.976          41.74         -12.71           -6.8         -58.16         0.9666         -24.88          42.11          37.99
    0.3569               -56.0         -3.113          6.999          41.76         -12.69         -6.777         -58.14         0.9978         -24.89          42.16          38.01
    0.3718               -56.0         -3.088          7.025          41.77         -12.68         -6.752         -58.11          1.033         -24.89          42.21          38.04
    0.3866               -56.0         -3.059          7.054          41.79         -12.66         -6.723         -58.09          1.072          -24.9          42.27          38.07
    0.4015               -56.0         -3.027          7.087           41.8         -12.65         -6.691         -58.06          1.116          -24.9          42.33           38.1
    0.4164               -56.0         -2.991          7.123          41.83         -12.63         -6.655         -58.02          1.165         -24.91           42.4          38.14
    0.4313              -55.99          -2.95          7.165          41.85         -12.61         -6.614         -57.98          1.222         -24.92          42.48          38.19
    0.4461              -55.99         -2.903          7.213          41.87         -12.58         -6.567         -57.94          1.286         -24.93          42.57          38.23
     0.461              -55.99         -2.849          7.268          41.91         -12.55         -6.514         -57.89           1.36         -24.94          42.68          38.29
